<svg xmlns="http://www.w3.org/2000/svg" style="display:none">
  <defs>
    <!-- PayPal Logo -->
    <symbol id="pay-paypal" viewBox="0 0 80 24">
      <path d="M10.5 1H3.2c-.4 0-.7.3-.8.7L.1 16.6c0 .3.2.5.4.5h3.2c.4 0 .7-.3.8-.7l.7-4.1c.1-.4.4-.7.8-.7h2.4c3.2 0 5.7-1.9 6.4-4.9.3-1.3.2-2.4-.3-3.3C13.8 1.9 12.3 1 10.5 1zm.8 4.3c-.3 1.6-1.5 2.5-3 2.5H6.9l.8-5c0-.2.2-.3.4-.3h1.1c1 0 1.7.3 2.1.8.3.4.4 1.1.2 1.8z" fill="#003087"/>
      <path d="M23.6 6.1c-.5-1.5-1.8-2.5-3.6-2.5h-4.4c-.4 0-.7.3-.8.7l-2.6 16.2c0 .3.2.5.4.5H16c.4 0 .7-.3.8-.7l1.1-6.6c.1-.4.4-.7.8-.7h2.4c3.2 0 5.7-1.9 6.4-4.9.3-1.3.2-2.4-.3-3.3-.5-.9-1.6-1.3-2.6-1.3z" fill="#009cde" opacity=".8"/>
    </symbol>

    <!-- Cash App Logo -->
    <symbol id="pay-cashapp" viewBox="0 0 24 24">
      <rect width="24" height="24" rx="6" fill="#00D632"/>
      <path d="M12 5c-3.9 0-7 3.1-7 7s3.1 7 7 7 7-3.1 7-7-3.1-7-7-7zm.5 10.5v.5h-1v-.5c-1.1-.2-2-.6-2.5-1.5l.8-.4c.3.5.7.8 1.3.9v-2.2c-1.1-.3-1.8-.9-1.8-1.8 0-.8.6-1.5 1.5-1.7V9.5h1v.4c.7.1 1.2.4 1.5.9l-.7.4c-.2-.4-.5-.6-.9-.7v2c1.1.3 1.8.9 1.8 1.8 0 .9-.6 1.6-1.5 1.8z" fill="white"/>
    </symbol>

    <!-- Venmo Logo -->
    <symbol id="pay-venmo" viewBox="0 0 24 24">
      <rect width="24" height="24" rx="6" fill="#008CFF"/>
      <path d="M16.5 5c0 6-2.5 12-5.5 14H7l2-4c1.5-3 2.5-7 2.5-10h5z" fill="white"/>
    </symbol>

    <!-- Zelle Logo -->
    <symbol id="pay-zelle" viewBox="0 0 24 24">
      <rect width="24" height="24" rx="6" fill="#6C1D82"/>
      <path d="M12 5L5 12h3v5h8v-5h3L12 5z" fill="white"/>
    </symbol>

    <!-- Bitcoin Logo -->
    <symbol id="pay-bitcoin" viewBox="0 0 24 24">
      <circle cx="12" cy="12" r="11" fill="#F7931A"/>
      <path d="M13.5 12c1.5-.5 2.5-1.5 2-3.5-.5-2-2-2.5-4-2.5H9v-2H7v2H5v2h2v9H5v2h2v2h2v-2h3c2.5 0 4.5-1 5-3.5s-1.5-3-3.5-3.5zm-3-3.5h1.5c1 0 1.5.5 1.5 1.5s-.5 1.5-1.5 1.5H10.5v-3zm1.5 7H10v-3h2c1.5 0 2 .5 2 1.5s-.5 1.5-2 1.5z" fill="white"/>
    </symbol>

    <!-- Ethereum Logo -->
    <symbol id="pay-ethereum" viewBox="0 0 24 24">
      <circle cx="12" cy="12" r="11" fill="#627EEA"/>
      <path d="M12 3v6.6l5.5 2.5L12 3z" fill="white" opacity=".6"/>
      <path d="M12 3L6.5 12.1 12 9.6V3z" fill="white"/>
      <path d="M12 15.8v5.2l5.5-7.6L12 15.8z" fill="white" opacity=".6"/>
      <path d="M12 21v-5.2L6.5 13.4 12 21z" fill="white"/>
      <path d="M12 14.5l5.5-3.1L12 9.7v4.8z" fill="white" opacity=".2"/>
      <path d="M6.5 11.4L12 14.5V9.7l-5.5 1.7z" fill="white" opacity=".6"/>
    </symbol>

    <!-- USDT Logo -->
    <symbol id="pay-usdt" viewBox="0 0 24 24">
      <circle cx="12" cy="12" r="11" fill="#26A17B"/>
      <path d="M13.2 12.5v-2.5h4.5v-2H6.3v2h4.5v2.5C7.5 12.7 4.5 13.6 4.5 14.7s3 2 6.3 2c3.4 0 6.3-.9 6.3-2s-2.9-2-6.3-2.2z" fill="white"/>
    </symbol>

    <!-- Credit Card Logo -->
    <symbol id="pay-creditcard" viewBox="0 0 24 24">
      <rect x="1" y="4" width="22" height="16" rx="2" fill="none" stroke="currentColor" stroke-width="1.5"/>
      <line x1="1" y1="9" x2="23" y2="9" stroke="currentColor" stroke-width="1.5"/>
      <line x1="4" y1="14" x2="8" y2="14" stroke="#E31937" stroke-width="1.5" stroke-linecap="round"/>
      <line x1="12" y1="14" x2="16" y2="14" stroke="#E31937" stroke-width="1.5" stroke-linecap="round"/>
    </symbol>

    <!-- Apple Gift Card Logo -->
    <symbol id="pay-applegift" viewBox="0 0 24 24">
      <rect x="2" y="6" width="20" height="14" rx="3" fill="#A2AAAD" opacity=".3"/>
      <polyline points="20,10 20,20 4,20 4,10" fill="none" stroke="#A2AAAD" stroke-width="1.5"/>
      <line x1="12" y1="20" x2="12" y2="10" stroke="#A2AAAD" stroke-width="1.5"/>
      <path d="M12 10H7.5a2.5 2.5 0 0 1 0-5C11 5 12 10 12 10z" fill="#A2AAAD" opacity=".5"/>
      <path d="M12 10h4.5a2.5 2.5 0 0 0 0-5C13 5 12 10 12 10z" fill="#A2AAAD" opacity=".5"/>
    </symbol>
  </defs>
</svg>
